<?xml version="1.0" encoding="UTF-8" standalone="no"?>
<!DOCTYPE svg PUBLIC "-//W3C//DTD SVG 1.1//EN" "http://www.w3.org/Graphics/SVG/1.1/DTD/svg11.dtd">
<svg version="1.1" xmlns="http://www.w3.org/2000/svg" xmlns:xlink="http://www.w3.org/1999/xlink" preserveAspectRatio="xMidYMid meet" viewBox="57.64864864864862 27.24324324324334 540.4527027027028 565.689189189189" width="1024" height="1024"><defs><path d="M525.03 589.93C563.73 589.93 595.1 558.56 595.1 519.86C595.1 421.53 595.1 196.64 595.1 98.32C595.1 59.62 563.73 28.24 525.03 28.24C431.99 28.24 222.95 28.24 129.91 28.24C91.2 28.24 59.83 59.62 59.83 98.32C59.83 196.64 59.83 421.53 59.83 519.86C59.83 558.56 91.2 589.93 129.91 589.93C222.95 589.93 431.99 589.93 525.03 589.93Z" id="d5mPOppQMZ"></path><linearGradient id="gradientaCe0XJmHV" gradientUnits="userSpaceOnUse" x1="327.47" y1="589.93" x2="327.47" y2="28.24"><stop style="stop-color: #388e3c;stop-opacity: 1" offset="0%"></stop><stop style="stop-color: #010000;stop-opacity: 1" offset="100%"></stop></linearGradient><path d="M588.78 122.43L458.65 374.47L336.91 314.58L223.57 425.63L137.51 380.71L66.15 512.97" id="b566F3QQ2O"></path><path d="M301.46 416.96C301.46 443.96 280.12 465.88 253.84 465.88C227.56 465.88 206.23 443.96 206.23 416.96C206.23 389.97 227.56 368.05 253.84 368.05C280.12 368.05 301.46 389.97 301.46 416.96Z" id="dWHzPpIMP"></path><path d="M457.01 416.96C457.01 443.96 435.68 465.88 409.4 465.88C383.12 465.88 361.79 443.96 361.79 416.96C361.79 389.97 383.12 368.05 409.4 368.05C435.68 368.05 457.01 389.97 457.01 416.96Z" id="b5jFr7CxR"></path><path d="M355.02 416.96C354.34 416.47 353.91 416.16 353.74 416.03C339.24 405.5 319.51 405.88 305.42 416.96C305.42 416.96 305.42 416.96 305.42 416.96" id="d3ZHxNXmr2"></path><path d="M303.44 182.8L406.6 122.43L454.21 282.71L206.23 282.71L265.75 151.57L303.44 182.8Z" id="c1ZCUIevQH"></path><path d="M501.82 343.07L160.6 343.07C180.17 336.72 192.4 332.75 197.29 331.16C289.89 301.1 389.85 302.71 481.43 335.72C484.15 336.7 490.95 339.15 501.82 343.07Z" id="a110JkIK15"></path></defs><g><g><use xlink:href="#d5mPOppQMZ" opacity="1" fill="url(#gradientaCe0XJmHV)"></use></g><g><g><use xlink:href="#b566F3QQ2O" opacity="1" fill-opacity="0" stroke="#0d2403" stroke-width="17" stroke-opacity="1"></use></g></g><g><g><use xlink:href="#dWHzPpIMP" opacity="1" fill="#ffffff" fill-opacity="1"></use></g><g><use xlink:href="#b5jFr7CxR" opacity="1" fill="#ffffff" fill-opacity="1"></use></g><g></g><g><use xlink:href="#c1ZCUIevQH" opacity="1" fill="#ffffff" fill-opacity="1"></use></g><g><use xlink:href="#a110JkIK15" opacity="1" fill="#ffffff" fill-opacity="1"></use></g></g></g></svg>